<svg width="598.4px" height="189.2px" xmlns="http://www.w3.org/2000/svg" viewBox="-49.18124999999998 -19.599999999999994 598.3625 189.2" style="background: none" preserveAspectRatio="xMidYMid"><defs><linearGradient id="editing-glowing-gradient" x1="0.8146601955249185" x2="0.18533980447508147" y1="0.8885729807284856" y2="0.11142701927151444"><stop offset="0" stop-color="#000000"></stop><stop offset="1" stop-color="#da430b"></stop></linearGradient><filter id="editing-glowing" x="-100%" y="-100%" width="300%" height="300%"><feGaussianBlur in="SourceGraphic" result="blur" stdDeviation="16.5"></feGaussianBlur><feMerge><feMergeNode in="blur"></feMergeNode><feMergeNode in="SourceGraphic"></feMergeNode></feMerge></filter></defs><g filter="url(#editing-glowing)"><g transform="matrix(1.4,0,0,2.1,-25.3,290.4)"><path d="M -4.5 -130.2 L -4.5 -84.7 L -10.5 -82.6 L -10.5 -128 L -4.5 -130.2 Z M 39 -116.1 L 39 -116.1 Q 40.9 -116.1 42 -114.8 L 42 -114.8 L 42 -114.8 Q 43 -113.6 43 -110.6 L 43 -110.6 L 43 -88.9 L 43 -88.9 Q 43 -87.9 43.5 -87.3 L 43.5 -87.3 L 43.5 -87.3 Q 43.9 -86.7 44.7 -86.7 L 44.7 -86.7 L 44.7 -86.7 Q 45.4 -86.7 46.3 -87.3 L 46.3 -87.3 L 46.3 -87.3 Q 47.2 -88 48.1 -89.2 L 48.1 -89.2 L 49.1 -88.2 L 49.1 -88.2 Q 47.7 -85.4 45.9 -84.2 L 45.9 -84.2 L 45.9 -84.2 Q 44 -83.1 45.2 -83.2 L 45.2 -83.2 L 45.2 -83.2 Q 46.3 -83.2 42.4 -83.2 L 42.4 -83.2 L 42.4 -83.2 Q 37.1 -83.2 37.1 -89.6 L 37.1 -89.6 L 37.1 -107.3 L 37.1 -107.3 Q 37.1 -108 36.8 -108.4 L 36.8 -108.4 L 36.8 -108.4 Q 36.5 -108.8 36 -108.8 L 36 -108.8 L 36 -108.8 Q 34.6 -108.8 32.9 -105.8 L 32.9 -105.8 L 32.9 -105.8 Q 31.2 -102.7 30.1 -97.1 L 30.1 -97.1 L 30.1 -97.1 Q 28.9 -91.5 28.9 -84.3 L 28.9 -84.3 L 23.1 -82.6 L 23.1 -107.3 L 23.1 -107.3 Q 23.1 -108 22.8 -108.4 L 22.8 -108.4 L 22.8 -108.4 Q 22.5 -108.8 22 -108.8 L 22 -108.8 L 22 -108.8 Q 20.7 -108.8 19 -105.7 L 19 -105.7 L 19 -105.7 Q 17.3 -102.6 16.1 -97 L 16.1 -97 L 16.1 -97 Q 14.9 -91.4 14.9 -84.3 L 14.9 -84.3 L 9.3 -82.6 L 9.3 -110 L 9.3 -110 Q 9.3 -111.1 8.8 -111.7 L 8.8 -111.7 L 8.8 -111.7 Q 8.3 -112.4 7.4 -112.4 L 7.4 -112.4 L 7.4 -112.4 Q 5.8 -112.4 4.2 -109.6 L 4.2 -109.6 L 3.1 -110.6 L 3.1 -110.6 Q 4.5 -113.5 6.3 -114.8 L 6.3 -114.8 L 6.3 -114.8 Q 8.2 -116 8.6 -116 L 8.6 -116 L 8.6 -116 Q 9 -116.1 9.9 -116.1 L 9.9 -116.1 L 9.9 -116.1 Q 12.9 -116.1 14 -114.8 L 14 -114.8 L 14 -114.8 Q 15.1 -113.5 15.1 -111.3 L 15.1 -111.3 L 15.1 -100.6 L 15.3 -100.6 L 15.3 -100.6 Q 16.9 -107.6 19.6 -111.8 L 19.6 -111.8 L 19.6 -111.8 Q 22.3 -116.1 25 -116.1 L 25 -116.1 L 25 -116.1 Q 27 -116.1 28 -114.9 L 28 -114.9 L 28 -114.9 Q 29 -113.6 29 -110.6 L 29 -110.6 L 29 -100.6 L 29.4 -100.6 L 29.4 -100.6 Q 31 -107.6 33.6 -111.8 L 33.6 -111.8 L 33.6 -111.8 Q 36.3 -116.1 39 -116.1 L 39 -116.1 Z M 71 -115.5 L 71 -115.5 Q 74.1 -115.5 76.9 -114.2 L 76.9 -114.2 L 76.9 -114.2 Q 79.7 -112.8 81 -110.1 L 81 -110.1 L 76.4 -107.6 L 76.4 -107.6 Q 75.3 -109 73.5 -110.2 L 73.5 -110.2 L 73.5 -110.2 Q 71.7 -111.4 69.7 -111.4 L 69.7 -111.4 L 69.7 -111.4 Q 66.4 -111.4 64 -109.7 L 64 -109.7 L 64 -109.7 Q 61.6 -108 60.3 -105.1 L 60.3 -105.1 L 60.3 -105.1 Q 59 -102.3 59 -98.7 L 59 -98.7 L 59 -98.7 Q 59 -93.7 60.7 -90.5 L 60.7 -90.5 L 60.7 -90.5 Q 62.5 -87.3 66.2 -87.3 L 66.2 -87.3 L 66.2 -87.3 Q 71.4 -87.3 73.4 -91.6 L 73.4 -91.6 L 73.4 -91.6 Q 75.4 -95.8 75.4 -100.8 L 75.4 -100.8 L 75.4 -103.7 L 81 -106 L 81 -89.2 L 81 -89.2 Q 81 -88.4 81.5 -87.6 L 81.5 -87.6 L 81.5 -87.6 Q 81.9 -86.8 82.8 -86.8 L 82.8 -86.8 L 82.8 -86.8 Q 84.7 -86.8 86.2 -89.4 L 86.2 -89.4 L 87.2 -88.4 L 87.2 -88.4 Q 86.4 -86.2 84.5 -84.7 L 84.5 -84.7 L 84.5 -84.7 Q 82.6 -83.2 80.6 -83.2 L 80.6 -83.2 L 80.6 -83.2 Q 77.9 -83.2 76.6 -85.2 L 76.6 -85.2 L 76.6 -85.2 Q 75.3 -87.3 75.3 -90.7 L 75.3 -90.7 L 75.1 -90.7 L 75.1 -90.7 Q 73.5 -87.3 70.8 -85 L 70.8 -85 L 70.8 -85 Q 68.1 -82.7 65.1 -82.7 L 65.1 -82.7 L 65.1 -82.7 Q 59.7 -82.7 56.9 -86.5 L 56.9 -86.5 L 56.9 -86.5 Q 54.1 -90.2 54.1 -96.5 L 54.1 -96.5 L 54.1 -96.5 Q 54.1 -101.5 56.3 -105.9 L 56.3 -105.9 L 56.3 -105.9 Q 58.6 -110.3 62.4 -112.9 L 62.4 -112.9 L 62.4 -112.9 Q 66.3 -115.5 71 -115.5 L 71 -115.5 Z M 107.6 -116.3 L 107.6 -116.3 Q 110.7 -116.3 113.5 -114.6 L 113.5 -114.6 L 113.5 -114.6 Q 116.3 -112.9 117.8 -110.1 L 117.8 -110.1 L 113.2 -107.6 L 113.2 -107.6 Q 112.2 -109.8 110.4 -111.1 L 110.4 -111.1 L 110.4 -111.1 Q 108.6 -112.4 106.4 -112.4 L 106.4 -112.4 L 106.4 -112.4 Q 103.2 -112.4 100.8 -110.2 L 100.8 -110.2 L 100.8 -110.2 Q 98.4 -108 97.1 -104.8 L 97.1 -104.8 L 97.1 -104.8 Q 95.8 -101.6 95.8 -98.7 L 95.8 -98.7 L 95.8 -98.7 Q 95.8 -94.3 97.7 -90.8 L 97.7 -90.8 L 97.7 -90.8 Q 99.6 -87.3 103.7 -87.3 L 103.7 -87.3 L 103.7 -87.3 Q 108.5 -87.3 110.3 -91.6 L 110.3 -91.6 L 110.3 -91.6 Q 112.1 -95.9 112.1 -100.8 L 112.1 -100.8 L 112.1 -103.7 L 117.8 -106 L 117.8 -86.4 L 117.8 -86.4 Q 117.8 -81.6 115.6 -76.5 L 115.6 -76.5 L 115.6 -76.5 Q 113.3 -71.4 109.4 -68 L 109.4 -68 L 109.4 -68 Q 105.5 -64.6 100.5 -64.6 L 100.5 -64.6 L 100.5 -64.6 Q 97 -64.6 95 -67.1 L 95 -67.1 L 100.4 -71.7 L 100.4 -71.7 Q 100.9 -70.5 101.9 -69.8 L 101.9 -69.8 L 101.9 -69.8 Q 103 -69.1 104.6 -69.1 L 104.6 -69.1 L 104.6 -69.1 Q 109.4 -69.1 110.8 -72.7 L 110.8 -72.7 L 110.8 -72.7 Q 112.3 -76.2 112.3 -81.6 L 112.3 -81.6 L 112.1 -86.8 L 112.1 -86.8 Q 112.1 -89.2 112.5 -90.7 L 112.5 -90.7 L 112.1 -90.7 L 112.1 -90.7 Q 109.7 -87 107.5 -84.8 L 107.5 -84.8 L 107.5 -84.8 Q 105.3 -82.7 102.2 -82.7 L 102.2 -82.7 L 102.2 -82.7 Q 96.7 -82.7 93.8 -86.4 L 93.8 -86.4 L 93.8 -86.4 Q 90.8 -90 90.8 -95.5 L 90.8 -95.5 L 90.8 -95.5 Q 90.8 -101 93 -105.7 L 93 -105.7 L 93 -105.7 Q 95.2 -110.5 99.1 -113.4 L 99.1 -113.4 L 99.1 -113.4 Q 103 -116.3 107.6 -116.3 L 107.6 -116.3 Z M 143.7 -116.1 L 143.7 -116.1 Q 147.2 -116.1 149.5 -114.2 L 149.5 -114.2 L 149.5 -114.2 Q 151.8 -112.4 151.8 -108.7 L 151.8 -108.7 L 151.8 -108.7 Q 151.8 -105.8 148.6 -102.2 L 148.6 -102.2 L 148.6 -102.2 Q 145.5 -98.5 141.2 -95.5 L 141.2 -95.5 L 141.2 -95.5 Q 137 -92.5 134 -91.3 L 134 -91.3 L 134 -91.3 Q 135.6 -88.8 137.6 -87.8 L 137.6 -87.8 L 137.6 -87.8 Q 139.7 -86.8 142.4 -86.8 L 142.4 -86.8 L 142.4 -86.8 Q 145.5 -86.8 148.5 -88.3 L 148.5 -88.3 L 148.5 -88.3 Q 151.6 -89.9 153.5 -92.4 L 153.5 -92.4 L 154.3 -91.1 L 154.3 -91.1 Q 151.2 -87 147.7 -84.9 L 147.7 -84.9 L 147.7 -84.9 Q 144.1 -82.7 139 -82.7 L 139 -82.7 L 139 -82.7 Q 135.1 -82.7 132 -84.7 L 132 -84.7 L 132 -84.7 Q 129 -86.6 127.2 -89.8 L 127.2 -89.8 L 127.2 -89.8 Q 125.5 -93 125.5 -96.8 L 125.5 -96.8 L 125.5 -96.8 Q 125.5 -101.6 128.1 -106 L 128.1 -106 L 128.1 -106 Q 130.6 -110.5 134.9 -113.3 L 134.9 -113.3 L 134.9 -113.3 Q 139.1 -116.1 143.7 -116.1 L 143.7 -116.1 Z M 140.4 -112 L 140.4 -112 Q 137.6 -112 135.4 -110.3 L 135.4 -110.3 L 135.4 -110.3 Q 133.2 -108.5 131.9 -105.6 L 131.9 -105.6 L 131.9 -105.6 Q 130.7 -102.8 130.7 -99.8 L 130.7 -99.8 L 130.7 -99.8 Q 130.7 -95.9 132.5 -93 L 132.5 -93 L 132.5 -93 Q 135.2 -94.3 138.4 -96.7 L 138.4 -96.7 L 138.4 -96.7 Q 141.5 -99.2 143.7 -102.1 L 143.7 -102.1 L 143.7 -102.1 Q 145.9 -104.9 145.9 -107.3 L 145.9 -107.3 L 145.9 -107.3 Q 145.9 -112 140.4 -112 L 140.4 -112 Z M 168.5 -118.1 L 168.5 -118.1 Q 170.7 -118.1 171.7 -117.4 L 171.7 -117.4 L 171.7 -117.4 Q 172.7 -116.6 172.7 -115 L 172.7 -115 L 172.7 -115 Q 172.7 -113.3 172 -111.9 L 172 -111.9 L 172 -111.9 Q 171.3 -110.6 170.6 -109.6 L 170.6 -109.6 L 170.6 -109.6 Q 169.8 -108.7 169.5 -108.3 L 169.5 -108.3 L 169.5 -108.3 Q 170.3 -107 172.4 -105.3 L 172.4 -105.3 L 172.4 -105.3 Q 174.1 -103.8 175.2 -102.6 L 175.2 -102.6 L 175.2 -102.6 Q 176.2 -101.5 176.9 -99.5 L 176.9 -99.5 L 176.9 -99.5 Q 177.7 -97.6 177.7 -94.8 L 177.7 -94.8 L 177.7 -94.8 Q 177.7 -91.4 176.2 -88.7 L 176.2 -88.7 L 176.2 -88.7 Q 174.7 -85.9 172 -84.3 L 172 -84.3 L 172 -84.3 Q 169.3 -82.7 166 -82.7 L 166 -82.7 L 166 -82.7 Q 164 -82.7 161.5 -83.6 L 161.5 -83.6 L 161.5 -83.6 Q 159.1 -84.5 158 -86.1 L 158 -86.1 L 162.2 -91.8 L 162.2 -91.8 Q 163.8 -89.8 165.5 -88.4 L 165.5 -88.4 L 165.5 -88.4 Q 167.2 -87 169.2 -87 L 169.2 -87 L 169.2 -87 Q 171.9 -87 173.9 -88.8 L 173.9 -88.8 L 173.9 -88.8 Q 175.8 -90.6 175.8 -93.2 L 175.8 -93.2 L 175.8 -93.2 Q 175.8 -95.2 174.1 -97.2 L 174.1 -97.2 L 174.1 -97.2 Q 172.4 -99.2 169.3 -102 L 169.3 -102 L 169.3 -102 Q 169 -102.3 167.9 -103.3 L 167.9 -103.3 L 167.9 -103.3 Q 166.8 -104.3 166.3 -104.9 L 166.3 -104.9 L 161.8 -98.4 L 159.7 -99.7 L 164.9 -106.8 L 164.9 -106.8 Q 164 -109.3 164 -111.7 L 164 -111.7 L 164 -111.7 Q 164 -114.5 165.2 -116.3 L 165.2 -116.3 L 165.2 -116.3 Q 166.4 -118.1 168.5 -118.1 L 168.5 -118.1 Z M 168.5 -115.6 L 168.5 -115.6 Q 167.7 -115.6 167.5 -115.2 L 167.5 -115.2 L 167.5 -115.2 Q 167.2 -114.7 167.2 -113.8 L 167.2 -113.8 L 167.2 -113.8 Q 167.2 -112.7 167.6 -111.9 L 167.6 -111.9 L 167.6 -111.9 Q 167.9 -111 168 -110.7 L 168 -110.7 L 168 -110.7 Q 168.7 -111.2 169.3 -112.3 L 169.3 -112.3 L 169.3 -112.3 Q 169.9 -113.5 169.9 -114.4 L 169.9 -114.4 L 169.9 -114.4 Q 169.9 -114.9 169.6 -115.3 L 169.6 -115.3 L 169.6 -115.3 Q 169.2 -115.6 168.5 -115.6 L 168.5 -115.6 Z M 222.3 -130 L 222.3 -130 Q 226.1 -130 228.5 -128.3 L 228.5 -128.3 L 228.5 -128.3 Q 231 -126.6 231 -124 L 231 -124 L 231 -124 Q 231 -121.3 228.9 -118.7 L 228.9 -118.7 L 228.9 -118.7 Q 226.8 -116.1 223.5 -114.3 L 223.5 -114.3 L 223.5 -114.3 Q 220.2 -112.5 216.8 -112.2 L 216.8 -112.2 L 216.1 -113.5 L 216.1 -113.5 Q 219.5 -114.3 221.9 -116.8 L 221.9 -116.8 L 221.9 -116.8 Q 224.3 -119.2 224.3 -121.8 L 224.3 -121.8 L 224.3 -121.8 Q 224.3 -124 222.8 -125.2 L 222.8 -125.2 L 222.8 -125.2 Q 221.3 -126.4 218.9 -126.4 L 218.9 -126.4 L 218.9 -126.4 Q 214.5 -126.4 211.1 -123.6 L 211.1 -123.6 L 211.1 -123.6 Q 207.6 -120.8 205.7 -115.8 L 205.7 -115.8 L 205.7 -115.8 Q 203.7 -110.8 203.7 -104.5 L 203.7 -104.5 L 203.7 -104.5 Q 203.7 -96.8 206.3 -92.5 L 206.3 -92.5 L 206.3 -92.5 Q 208.8 -88.1 214 -88.1 L 214 -88.1 L 214 -88.1 Q 216.9 -88.1 219.6 -90.2 L 219.6 -90.2 L 219.6 -90.2 Q 222.3 -92.3 224.1 -95.7 L 224.1 -95.7 L 224.1 -95.7 Q 225.8 -99.1 225.9 -102.6 L 225.9 -102.6 L 231.9 -104.8 L 231.9 -79 L 226.3 -76.7 L 226.3 -96.2 L 225.9 -96.2 L 225.9 -96.2 Q 225 -92.2 222.8 -89.2 L 222.8 -89.2 L 222.8 -89.2 Q 220.5 -86.2 217.6 -84.6 L 217.6 -84.6 L 217.6 -84.6 Q 214.6 -83 211.4 -83 L 211.4 -83 L 211.4 -83 Q 207 -83 203.8 -85.1 L 203.8 -85.1 L 203.8 -85.1 Q 200.5 -87.2 198.8 -91 L 198.8 -91 L 198.8 -91 Q 197 -94.8 197 -100 L 197 -100 L 197 -100 Q 197 -108.3 200.3 -115.2 L 200.3 -115.2 L 200.3 -115.2 Q 203.7 -122.1 209.4 -126 L 209.4 -126 L 209.4 -126 Q 215.2 -130 222.3 -130 L 222.3 -130 Z M 256.1 -115.5 L 256.1 -115.5 Q 259.3 -115.5 262.1 -114.2 L 262.1 -114.2 L 262.1 -114.2 Q 264.8 -112.8 266.1 -110.1 L 266.1 -110.1 L 261.5 -107.6 L 261.5 -107.6 Q 260.5 -109 258.7 -110.2 L 258.7 -110.2 L 258.7 -110.2 Q 256.9 -111.4 254.9 -111.4 L 254.9 -111.4 L 254.9 -111.4 Q 251.6 -111.4 249.2 -109.7 L 249.2 -109.7 L 249.2 -109.7 Q 246.7 -108 245.4 -105.1 L 245.4 -105.1 L 245.4 -105.1 Q 244.2 -102.3 244.2 -98.7 L 244.2 -98.7 L 244.2 -98.7 Q 244.2 -93.7 245.9 -90.5 L 245.9 -90.5 L 245.9 -90.5 Q 247.6 -87.3 251.3 -87.3 L 251.3 -87.3 L 251.3 -87.3 Q 256.6 -87.3 258.6 -91.6 L 258.6 -91.6 L 258.6 -91.6 Q 260.5 -95.8 260.5 -100.8 L 260.5 -100.8 L 260.5 -103.7 L 266.2 -106 L 266.2 -89.2 L 266.2 -89.2 Q 266.2 -88.4 266.6 -87.6 L 266.6 -87.6 L 266.6 -87.6 Q 267.1 -86.8 268 -86.8 L 268 -86.8 L 268 -86.8 Q 269.8 -86.8 271.4 -89.4 L 271.4 -89.4 L 272.3 -88.4 L 272.3 -88.4 Q 271.6 -86.2 269.6 -84.7 L 269.6 -84.7 L 269.6 -84.7 Q 267.7 -83.2 265.8 -83.2 L 265.8 -83.2 L 265.8 -83.2 Q 263 -83.2 261.7 -85.2 L 261.7 -85.2 L 261.7 -85.2 Q 260.4 -87.3 260.4 -90.7 L 260.4 -90.7 L 260.3 -90.7 L 260.3 -90.7 Q 258.7 -87.3 256 -85 L 256 -85 L 256 -85 Q 253.3 -82.7 250.2 -82.7 L 250.2 -82.7 L 250.2 -82.7 Q 244.8 -82.7 242 -86.5 L 242 -86.5 L 242 -86.5 Q 239.2 -90.2 239.2 -96.5 L 239.2 -96.5 L 239.2 -96.5 Q 239.2 -101.5 241.5 -105.9 L 241.5 -105.9 L 241.5 -105.9 Q 243.7 -110.3 247.6 -112.9 L 247.6 -112.9 L 247.6 -112.9 Q 251.5 -115.5 256.1 -115.5 L 256.1 -115.5 Z M 284.5 -142.6 L 284.5 -88.9 L 284.5 -88.9 Q 284.5 -88.1 285 -87.4 L 285 -87.4 L 285 -87.4 Q 285.4 -86.7 286.5 -86.7 L 286.5 -86.7 L 286.5 -86.7 Q 287.4 -86.7 288.4 -87.5 L 288.4 -87.5 L 288.4 -87.5 Q 289.4 -88.3 289.9 -89.2 L 289.9 -89.2 L 291 -88.2 L 291 -88.2 Q 289.9 -86.1 288 -84.7 L 288 -84.7 L 288 -84.7 Q 286.1 -83.2 284.2 -83.2 L 284.2 -83.2 L 284.2 -83.2 Q 278.8 -83.2 278.8 -89.6 L 278.8 -89.6 L 278.8 -140.2 L 284.5 -142.6 Z M 303.7 -142.6 L 303.7 -88.9 L 303.7 -88.9 Q 303.7 -88.1 304.1 -87.4 L 304.1 -87.4 L 304.1 -87.4 Q 304.6 -86.7 305.7 -86.7 L 305.7 -86.7 L 305.7 -86.7 Q 306.6 -86.7 307.6 -87.5 L 307.6 -87.5 L 307.6 -87.5 Q 308.5 -88.3 309.1 -89.2 L 309.1 -89.2 L 310.1 -88.2 L 310.1 -88.2 Q 309.1 -86.1 307.1 -84.7 L 307.1 -84.7 L 307.1 -84.7 Q 305.2 -83.2 303.3 -83.2 L 303.3 -83.2 L 303.3 -83.2 Q 297.9 -83.2 297.9 -89.6 L 297.9 -89.6 L 297.9 -140.2 L 303.7 -142.6 Z M 332.3 -116.1 L 332.3 -116.1 Q 335.7 -116.1 338.1 -114.2 L 338.1 -114.2 L 338.1 -114.2 Q 340.4 -112.4 340.4 -108.7 L 340.4 -108.7 L 340.4 -108.7 Q 340.4 -105.8 337.2 -102.2 L 337.2 -102.2 L 337.2 -102.2 Q 334 -98.5 329.8 -95.5 L 329.8 -95.5 L 329.8 -95.5 Q 325.5 -92.5 322.5 -91.3 L 322.5 -91.3 L 322.5 -91.3 Q 324.1 -88.8 326.1 -87.8 L 326.1 -87.8 L 326.1 -87.8 Q 328.2 -86.8 330.9 -86.8 L 330.9 -86.8 L 330.9 -86.8 Q 334 -86.8 337.1 -88.3 L 337.1 -88.3 L 337.1 -88.3 Q 340.1 -89.9 342.1 -92.4 L 342.1 -92.4 L 342.9 -91.1 L 342.9 -91.1 Q 339.7 -87 336.2 -84.9 L 336.2 -84.9 L 336.2 -84.9 Q 332.7 -82.7 327.6 -82.7 L 327.6 -82.7 L 327.6 -82.7 Q 323.7 -82.7 320.6 -84.7 L 320.6 -84.7 L 320.6 -84.7 Q 317.5 -86.6 315.8 -89.8 L 315.8 -89.8 L 315.8 -89.8 Q 314.1 -93 314.1 -96.8 L 314.1 -96.8 L 314.1 -96.8 Q 314.1 -101.6 316.6 -106 L 316.6 -106 L 316.6 -106 Q 319.2 -110.5 323.4 -113.3 L 323.4 -113.3 L 323.4 -113.3 Q 327.6 -116.1 332.3 -116.1 L 332.3 -116.1 Z M 329 -112 L 329 -112 Q 326.1 -112 323.9 -110.3 L 323.9 -110.3 L 323.9 -110.3 Q 321.7 -108.5 320.5 -105.6 L 320.5 -105.6 L 320.5 -105.6 Q 319.2 -102.8 319.2 -99.8 L 319.2 -99.8 L 319.2 -99.8 Q 319.2 -95.9 321.1 -93 L 321.1 -93 L 321.1 -93 Q 323.8 -94.3 326.9 -96.7 L 326.9 -96.7 L 326.9 -96.7 Q 330.1 -99.2 332.2 -102.1 L 332.2 -102.1 L 332.2 -102.1 Q 334.4 -104.9 334.4 -107.3 L 334.4 -107.3 L 334.4 -107.3 Q 334.4 -112 329 -112 L 329 -112 Z M 362.2 -107.7 L 362.2 -107.7 Q 359.4 -104.7 357.3 -99.9 L 357.3 -99.9 L 357.3 -99.9 Q 355.2 -95 355.2 -91.1 L 355.2 -91.1 L 355.2 -91.1 Q 355.2 -87.6 356.7 -85.3 L 356.7 -85.3 L 356.7 -85.3 Q 358.2 -82.9 361.5 -82.9 L 361.5 -82.9 L 361.5 -82.9 Q 364.2 -82.9 366.7 -84.3 L 366.7 -84.3 L 366.7 -84.3 Q 369.2 -85.7 370.9 -88 L 370.9 -88 L 370.2 -88.9 L 370.2 -88.9 Q 368.2 -87.6 366.3 -87.6 L 366.3 -87.6 L 366.3 -87.6 Q 363.3 -87.6 361.7 -89.7 L 361.7 -89.7 L 361.7 -89.7 Q 360.2 -91.8 360.2 -94.8 L 360.2 -94.8 L 360.2 -94.8 Q 360.2 -99.7 362.7 -104 L 362.7 -104 L 362.7 -104 Q 365.2 -108.4 369 -112.5 L 369 -112.5 L 368 -113.4 L 368 -113.4 Q 363.5 -110.6 359.8 -110.6 L 359.8 -110.6 L 359.8 -110.6 Q 357.6 -110.6 355.8 -112.5 L 355.8 -112.5 L 355.8 -112.5 Q 354.1 -114.5 353.1 -116.8 L 353.1 -116.8 L 347.9 -111 L 347.9 -111 Q 348.4 -109.7 350.3 -108.1 L 350.3 -108.1 L 346.1 -99.1 L 348.4 -98 L 352.6 -107.2 L 352.6 -107.2 Q 353.7 -106.7 354.4 -106.6 L 354.4 -106.6 L 354.4 -106.6 Q 355.1 -106.5 356.3 -106.5 L 356.3 -106.5 L 356.3 -106.5 Q 359.4 -106.5 362.1 -107.9 L 362.1 -107.9 L 362.2 -107.7 Z M 403.7 -116.4 L 403.7 -87 L 403.7 -87 Q 403.7 -80.9 401.3 -75.7 L 401.3 -75.7 L 401.3 -75.7 Q 398.9 -70.4 394.9 -67.3 L 394.9 -67.3 L 394.9 -67.3 Q 391 -64.2 386.5 -64.2 L 386.5 -64.2 L 386.5 -64.2 Q 384.8 -64.2 383.2 -64.7 L 383.2 -64.7 L 383.2 -64.7 Q 381.7 -65.2 380 -66.4 L 380 -66.4 L 384.5 -72.1 L 384.5 -72.1 Q 385.9 -70.8 387.7 -69.9 L 387.7 -69.9 L 387.7 -69.9 Q 389.5 -69.1 391.1 -69.1 L 391.1 -69.1 L 391.1 -69.1 Q 393.1 -69.1 394.7 -71.5 L 394.7 -71.5 L 394.7 -71.5 Q 396.3 -73.8 397.2 -78 L 397.2 -78 L 397.2 -78 Q 398.1 -82.2 398.1 -87.4 L 398.1 -87.4 L 398.1 -87.4 Q 398.1 -99.3 398.2 -102.7 L 398.2 -102.7 L 398.2 -106.5 L 397.8 -106.5 L 397.8 -106.5 Q 392.6 -82.7 384.2 -82.7 L 384.2 -82.7 L 384.2 -82.7 Q 382.3 -82.7 381.4 -83.5 L 381.4 -83.5 L 381.4 -83.5 Q 380.5 -84.2 380.2 -86.1 L 380.2 -86.1 L 380.2 -86.1 Q 379.9 -88 379.9 -92 L 379.9 -92 L 379.9 -110 L 379.9 -110 Q 379.9 -111 379.4 -111.7 L 379.4 -111.7 L 379.4 -111.7 Q 378.9 -112.4 378.1 -112.4 L 378.1 -112.4 L 378.1 -112.4 Q 376.5 -112.4 374.7 -109.8 L 374.7 -109.8 L 373.7 -110.8 L 373.7 -110.8 Q 375.1 -113.8 376.5 -114.9 L 376.5 -114.9 L 376.5 -114.9 Q 377.9 -116 380.5 -116 L 380.5 -116 L 380.5 -116 Q 383 -116 384.3 -114.4 L 384.3 -114.4 L 384.3 -114.4 Q 385.6 -112.8 385.6 -109.6 L 385.6 -109.6 L 385.6 -92.1 L 385.6 -92.1 Q 385.6 -89.8 386.9 -89.8 L 386.9 -89.8 L 386.9 -89.8 Q 388.5 -89.8 391 -94.1 L 391 -94.1 L 391 -94.1 Q 393.5 -98.5 395.5 -104.2 L 395.5 -104.2 L 395.5 -104.2 Q 397.4 -109.9 397.4 -113.5 L 397.4 -113.5 L 403.7 -116.4 Z" fill="url(#editing-glowing-gradient)"></path></g></g><style>text {
  font-size: 64px;
  font-family: Arial Black;
  dominant-baseline: central;
  text-anchor: middle;
}</style></svg>